<?xml version="1.0" encoding="UTF-8"?>
<svg width="40px" height="40px" viewBox="0 0 40 40" version="1.1" xmlns="http://www.w3.org/2000/svg" xmlns:xlink="http://www.w3.org/1999/xlink">
    <title>解绑</title>
    <g id="首页" stroke="none" stroke-width="1" fill="none" fill-rule="evenodd">
        <g id="4" transform="translate(-535.000000, -182.000000)" fill="#0F5BF3" fill-rule="nonzero">
            <g id="编组-4" transform="translate(511.000000, 158.000000)">
                <g id="26_解绑" transform="translate(24.000000, 24.000000)">
                    <path d="M20,0 C31.045695,0 40,8.954305 40,20 C40,31.045695 31.045695,40 20,40 C8.954305,40 0,31.045695 0,20 C0,8.954305 8.954305,0 20,0 Z M23.2472077,26.9021935 L21.4034457,27.4144787 L22.2862668,30.5918697 L24.1300453,30.0796352 L23.2472077,26.9021935 Z M15.8930327,18.5386083 L13.4592623,20.9723786 L13.3123115,21.1260884 C11.6468699,22.948677 11.6958497,25.7773252 13.4592623,27.5407377 C15.273058,29.3545335 18.2138297,29.3545294 20.0276214,27.5407377 L20.0276214,27.5407377 L22.4613917,25.1069673 L21.1082739,23.7538495 L18.6745035,26.1876198 L18.5533438,26.3017311 C17.480828,27.2526584 15.8393816,27.2146213 14.8123802,26.1876198 C13.7458867,25.1211264 13.7458831,23.3919935 14.8123802,22.3254965 L14.8123802,22.3254965 L17.2461505,19.8917261 L15.8930327,18.5386083 Z M24.762331,24.4092131 L23.4092131,25.762331 L25.7515044,28.1046222 L27.1046222,26.7515044 L24.762331,24.4092131 Z M26.4145935,22.4032587 L25.9022905,24.2470076 L29.0797044,25.1298456 L29.591974,23.2860955 L26.4145935,22.4032587 Z M26.5407377,14.4592623 C24.7269378,12.6454623 21.7861786,12.6454623 19.9723786,14.4592623 L19.9723786,14.4592623 L17.5386083,16.8930327 L18.8917261,18.2461505 L21.3254965,15.8123802 L21.446655,15.6982702 C22.5191614,14.7473541 24.1606304,14.7853907 25.1876198,15.8123802 C26.2541169,16.8788772 26.2541133,18.60801 25.1876198,19.6745035 L25.1876198,19.6745035 L22.7538495,22.1082739 L24.1069673,23.4613917 L26.5407377,21.0276214 L26.6876891,20.873911 C28.3531381,19.0513155 28.3041543,16.2226789 26.5407377,14.4592623 Z M10.9202369,16.8700912 L10.407936,18.7138664 L13.5853221,19.5967048 L14.0976069,17.7529439 L10.9202369,16.8700912 Z M14.2484832,13.8953653 L12.8953653,15.2484832 L15.2376565,17.5907744 L16.5907744,16.2376565 L14.2484832,13.8953653 Z M17.7138924,11.4079621 L15.8701294,11.9202475 L16.7529681,15.0976347 L18.5967157,14.5853321 L17.7138924,11.4079621 Z" id="形状结合"></path>
                </g>
            </g>
        </g>
    </g>
</svg>