<?xml version="1.0" encoding="UTF-8"?>
<svg width="318px" height="390px" viewBox="0 0 318 390" version="1.1" xmlns="http://www.w3.org/2000/svg" xmlns:xlink="http://www.w3.org/1999/xlink">
    <title>Online-bro</title>
    <g id="首页" stroke="none" stroke-width="1" fill="none" fill-rule="evenodd">
        <g id="链接钱包" transform="translate(-1006.000000, -154.000000)">
            <g id="Online-bro" transform="translate(1006.000000, 154.000000)">
                <g id="freepik--Floor--inject-4" transform="translate(8.168004, 352.764551)">
                    <ellipse id="椭圆形" stroke="#263238" stroke-width="0.25" opacity="0.386650618" cx="145.04" cy="18.11" rx="145.04" ry="18.11"></ellipse>
                    <ellipse id="椭圆形" stroke="#263238" stroke-width="0.5" opacity="0.277548147" cx="145.04" cy="16.32" rx="118.63" ry="15.61"></ellipse>
                    <ellipse id="椭圆形" stroke="#263238" cx="145.04" cy="16.32" rx="91.64" ry="12.06"></ellipse>
                    <ellipse id="椭圆形" fill="#121314" fill-rule="nonzero" opacity="0.129269622" cx="146.06" cy="15.92" rx="75.24" ry="7.9"></ellipse>
                </g>
                <g id="freepik--Lines--inject-4" transform="translate(0.768149, 0.000000)">
                    <path d="M152.459855,292.294551 C227.311007,292.294551 287.989855,231.615703 287.989855,156.764551 C287.989855,81.9133989 227.311007,21.234551 152.459855,21.234551 C77.6087024,21.234551 16.9298546,81.9133989 16.9298546,156.764551 C16.9298546,231.615703 77.6087024,292.294551 152.459855,292.294551 Z" id="椭圆形" stroke="#263238" stroke-linecap="round" stroke-linejoin="round" stroke-dasharray="2,3"></path>
                    <path d="M103.139855,293.764551 C82.3298546,293.764551 65.0198546,287.354551 52.6198546,274.954551 C15.9798546,238.314551 34.6998546,159.954551 94.3298546,100.354551 C123.209855,71.484551 157.259855,51.234551 190.209855,43.354551 C223.159855,35.474551 251.209855,40.884551 268.929855,58.644551 C284.339855,74.064551 290.579855,97.864551 286.489855,125.644551 L285.999855,125.574551 C290.059855,97.934551 283.869855,74.284551 268.569855,58.984551 C250.939855,41.344551 223.149855,35.984551 190.329855,43.824551 C157.509855,51.664551 123.499855,71.884551 94.6898546,100.694551 C35.2398546,160.144551 16.5298546,238.154551 52.9698546,274.584551 C67.4798546,289.094551 88.7798546,295.334551 114.569855,292.634551 L114.619855,293.134551 C110.80668,293.543208 106.974849,293.753491 103.139855,293.764551 L103.139855,293.764551 Z" id="路径" fill="#EEEEEF" fill-rule="nonzero"></path>
                    <path d="M210.879855,270.804551 C176.519855,270.804551 136.439855,257.064551 100.519855,230.184551 C34.2898546,180.624551 6.91985457,104.884551 39.5198546,61.344551 C53.8098546,42.244551 78.1098546,31.664551 107.929855,31.564551 L107.929855,32.064551 C78.2698546,32.164551 54.1198546,42.664551 39.9298546,61.644551 C7.51985457,104.964551 34.8398546,180.394551 100.849855,229.784551 C166.859855,279.174551 246.929855,284.114551 279.349855,240.784551 C292.769855,222.834551 296.439855,199.224551 289.949855,172.504551 L290.439855,172.384551 C296.959855,199.264551 293.259855,223.014551 279.749855,241.074551 C264.809855,261.014551 239.879855,270.794551 210.879855,270.804551 Z" id="路径" fill="#EEEEEF" fill-rule="nonzero"></path>
                    <path d="M89.1398546,212.584551 C78.6178045,212.634641 68.1062574,211.912704 57.6898546,210.424551 C26.6898546,205.814551 7.37985457,194.344551 3.45985457,178.124551 C-0.460145426,161.904551 11.4598546,142.894551 36.9698546,124.624551 C62.4798546,106.354551 98.4398546,91.034551 138.329855,81.394551 C178.219855,71.754551 217.259855,68.974551 248.229855,73.574551 C279.199855,78.174551 298.549855,89.644551 302.469855,105.874551 C306.389855,122.104551 294.469855,141.094551 268.959855,159.364551 C243.449855,177.634551 207.499855,192.944551 167.599855,202.584551 C140.269855,209.184551 113.339855,212.584551 89.1398546,212.584551 Z M216.829855,71.944551 C193.189855,71.944551 166.329855,75.144551 138.439855,81.884551 C98.6098546,91.504551 62.6698546,106.824551 37.2598546,125.014551 C11.8498546,143.204551 0.079854574,162.014551 3.94985457,178.014551 C7.81985457,194.014551 26.9498546,205.364551 57.7698546,209.934551 C88.5898546,214.504551 127.649855,211.744551 167.479855,202.124551 L167.539855,202.364551 L167.479855,202.124551 C249.649855,182.274551 309.989855,139.124551 301.979855,106.014551 C296.689855,84.094551 262.869855,71.944551 216.829855,71.944551 Z" id="形状" fill="#EEEEEF" fill-rule="nonzero"></path>
                    <path d="M118.859855,308.924551 C116.839129,308.920682 114.825673,308.682423 112.859855,308.214551 C96.6298546,304.294551 85.2598546,284.624551 80.8598546,252.824551 C76.4598546,221.024551 79.4598546,181.104551 89.3498546,140.154551 C99.2398546,99.204551 114.819855,62.234551 133.229855,36.034551 C151.639855,9.83455104 170.769855,-2.54544896 186.999855,1.37455104 C203.229855,5.29455104 214.599855,24.964551 218.999855,56.754551 C223.399855,88.544551 220.389855,128.484551 210.499855,169.434551 C200.609855,210.384551 184.989855,247.354551 166.579855,273.584551 C150.379855,296.584551 133.679855,308.924551 118.859855,308.924551 Z M180.919855,1.16339412 C148.679855,1.16339412 108.919855,60.854551 89.7598546,140.274551 C69.4398546,224.584551 79.7798546,299.714551 112.929855,307.724551 C128.929855,311.594551 147.849855,299.354551 166.169855,273.264551 C184.489855,247.174551 200.099855,210.194551 209.979855,169.264551 L210.219855,169.324551 L209.979855,169.264551 C230.349855,84.934551 219.979855,9.81455104 186.809855,1.81455104 C184.879491,1.36363811 182.902091,1.14541909 180.919855,1.16339412 Z" id="形状" fill="#EEEEEF" fill-rule="nonzero"></path>
                    <path d="M170.289855,266.864551 C171.266816,267.839046 172.848579,267.837713 173.823897,266.861573 C174.799215,265.885433 174.799215,264.303669 173.823897,263.327529 C172.848579,262.351389 171.266816,262.350056 170.289855,263.324551 C169.321507,264.305886 169.321507,265.883216 170.289855,266.864551 Z" id="路径" fill="#EEEEEF" fill-rule="nonzero"></path>
                    <path d="M172.059855,267.844551 C170.736579,267.852876 169.59222,266.924066 169.328145,265.627382 C169.064069,264.330697 169.754037,263.028319 170.975174,262.518463 C172.19631,262.008607 173.607534,262.433683 174.343921,263.533166 C175.080307,264.632649 174.936172,266.099438 173.999855,267.034551 C173.487883,267.553646 172.788945,267.84547 172.059855,267.844551 Z M172.059855,262.844542 C171.041074,262.843655 170.148816,263.527416 169.884763,264.511383 C169.62071,265.495351 170.05076,266.53396 170.933112,267.043244 C171.815464,267.552527 172.929915,267.405386 173.649855,266.684551 C174.527215,265.806098 174.527215,264.383004 173.649855,263.504551 C173.229562,263.080595 172.656832,262.842858 172.059855,262.844542 Z" id="形状" fill="#EEEEEF" fill-rule="nonzero"></path>
                    <path d="M77.6198546,213.454551 C78.5968162,214.429046 80.1785794,214.427713 81.1538973,213.451573 C82.1292151,212.475433 82.1292151,210.893669 81.1538973,209.917529 C80.1785794,208.941389 78.5968162,208.940056 77.6198546,209.914551 C77.1496461,210.383572 76.8853857,211.020415 76.8853857,211.684551 C76.8853857,212.348687 77.1496461,212.98553 77.6198546,213.454551 Z" id="路径" fill="#EEEEEF" fill-rule="nonzero"></path>
                    <path d="M79.3798546,214.434551 C78.6451495,214.42384 77.945781,214.117416 77.4398546,213.584551 L77.4398546,213.584551 C76.5194762,212.657055 76.382082,211.208711 77.1116423,210.124697 C77.8412027,209.040683 79.234698,208.622655 80.4404722,209.126097 C81.6462463,209.629538 82.3287603,210.914354 82.0708852,212.195309 C81.8130101,213.476264 80.6865066,214.396898 79.3798546,214.394551 L79.3798546,214.434551 Z M79.3798546,209.434551 C78.4704296,209.435351 77.6509073,209.983536 77.3029936,210.823781 C76.95508,211.664025 77.1471937,212.631091 77.7898546,213.274551 L77.7898546,213.274551 C78.6791309,214.125356 80.0805783,214.125356 80.9698546,213.274551 C81.6125155,212.631091 81.8046292,211.664025 81.4567155,210.823781 C81.1088018,209.983536 80.2892795,209.435351 79.3798546,209.434551 L79.3798546,209.434551 Z" id="形状" fill="#EEEEEF" fill-rule="nonzero"></path>
                    <path d="M44.4398546,172.414551 C45.1542329,173.131167 46.2301403,173.346491 47.1652863,172.959997 C48.1004323,172.573504 48.7103842,171.661418 48.7103842,170.649551 C48.7103842,169.637684 48.1004323,168.725598 47.1652863,168.339105 C46.2301403,167.952611 45.1542329,168.167935 44.4398546,168.884551 C43.4672273,169.860225 43.4672273,171.438877 44.4398546,172.414551 L44.4398546,172.414551 Z" id="路径" fill="#EEEEEF" fill-rule="nonzero"></path>
                    <path d="M46.1998546,173.394551 C44.8872612,173.394108 43.7579556,172.466089 43.5031115,171.178472 C43.2482675,169.890856 43.9389352,168.602628 45.1524024,168.10223 C46.3658696,167.601831 47.7638229,168.028771 48.490667,169.121748 C49.2175111,170.214726 49.0706026,171.669019 48.1398546,172.594551 C47.6243529,173.107164 46.9268441,173.394796 46.1998546,173.394551 Z M46.1998546,168.394551 C45.1315606,168.400347 44.2160282,169.159745 44.0128791,170.208561 C43.8097301,171.257378 44.3755068,172.303696 45.3643766,172.707951 C46.3532464,173.112206 47.4899777,172.761881 48.0797402,171.871114 C48.6695026,170.980347 48.5481479,169.797065 47.7898546,169.044551 C47.364447,168.630723 46.793329,168.400839 46.1998546,168.404551 L46.1998546,168.394551 Z" id="形状" fill="#EEEEEF" fill-rule="nonzero"></path>
                    <path d="M27.5498546,132.754551 C28.5268162,133.729046 30.1085794,133.727713 31.0838973,132.751573 C32.0592151,131.775433 32.0592151,130.193669 31.0838973,129.217529 C30.1085794,128.241389 28.5268162,128.240056 27.5498546,129.214551 C27.0771708,129.682252 26.8111969,130.319589 26.8111969,130.984551 C26.8111969,131.649513 27.0771708,132.28685 27.5498546,132.754551 L27.5498546,132.754551 Z" id="路径" fill="#EEEEEF" fill-rule="nonzero"></path>
                    <path d="M29.3098546,133.734552 C28.5832951,133.732632 27.8865767,133.445326 27.3698546,132.934551 L27.3698546,132.934551 C26.2962837,131.860476 26.2965561,130.119507 27.3704631,129.045768 C28.4443701,127.972029 30.1853391,127.972029 31.2592461,129.045768 C32.3331531,130.119507 32.3334255,131.860476 31.2598546,132.934551 C30.7406683,133.447757 30.039878,133.735261 29.3098546,133.734552 Z M27.7198546,132.584551 C28.3631296,133.228627 29.3311143,133.421641 30.1722254,133.073548 C31.0133366,132.725455 31.5618345,131.904846 31.5618345,130.994551 C31.5618345,130.084256 31.0133366,129.263647 30.1722254,128.915554 C29.3311143,128.567461 28.3631296,128.760475 27.7198546,129.404551 C26.8424944,130.283004 26.8424944,131.706098 27.7198546,132.584551 L27.7198546,132.584551 Z" id="形状" fill="#EEEEEF" fill-rule="nonzero"></path>
                    <path d="M33.8298546,206.974551 C34.8068162,207.949046 36.3885794,207.947713 37.3638973,206.971573 C38.3392151,205.995433 38.3392151,204.413669 37.3638973,203.437529 C36.3885794,202.461389 34.8068162,202.460056 33.8298546,203.434551 C33.3596461,203.903572 33.0953857,204.540415 33.0953857,205.204551 C33.0953857,205.868687 33.3596461,206.50553 33.8298546,206.974551 Z" id="路径" fill="#EEEEEF" fill-rule="nonzero"></path>
                    <path d="M35.5998546,207.954552 C34.8698311,207.955261 34.1690408,207.667757 33.6498546,207.154551 L33.6498546,207.154551 C32.5807974,206.078235 32.5807974,204.340867 33.6498546,203.264551 C34.52839,202.381905 35.8904185,202.199818 36.9699572,202.820691 C38.0494959,203.441565 38.577053,204.710407 38.2559389,205.913642 C37.9348247,207.116877 36.845201,207.954133 35.5998546,207.954552 L35.5998546,207.954552 Z M35.5998546,202.954551 C34.6904296,202.955351 33.8709073,203.503536 33.5229936,204.343781 C33.17508,205.184025 33.3671937,206.151091 34.0098546,206.794551 L34.0098546,206.794551 C34.8991309,207.645356 36.3005783,207.645356 37.1898546,206.794551 C37.8325155,206.151091 38.0246292,205.184025 37.6767155,204.343781 C37.3288018,203.503536 36.5092795,202.955351 35.5998546,202.954551 L35.5998546,202.954551 Z" id="形状" fill="#EEEEEF" fill-rule="nonzero"></path>
                    <path d="M103.139855,92.894551 C103.854233,93.6111674 104.93014,93.826491 105.865286,93.4399973 C106.800432,93.0535036 107.410384,92.1414183 107.410384,91.129551 C107.410384,90.1176838 106.800432,89.2055985 105.865286,88.8191048 C104.93014,88.4326111 103.854233,88.6479347 103.139855,89.364551 C102.67025,89.8318621 102.406236,90.4670499 102.406236,91.129551 C102.406236,91.7920522 102.67025,92.42724 103.139855,92.894551 L103.139855,92.894551 Z" id="路径" fill="#EEEEEF" fill-rule="nonzero"></path>
                    <path d="M104.909855,93.8745661 C103.66328,93.8786588 102.569861,93.0437388 102.245511,91.8400933 C101.921161,90.6364478 102.447017,89.3651766 103.52687,88.7423743 C104.606723,88.119572 105.970441,88.3010367 106.849855,89.184551 C107.632533,89.9708793 107.866046,91.1505031 107.441971,92.1757143 C107.017896,93.2009256 106.019307,93.8708951 104.909855,93.8745661 L104.909855,93.8745661 Z M104.909855,88.874551 C104.314107,88.8690891 103.741164,89.1033107 103.319855,89.524551 C102.545568,90.2845588 102.417334,91.4862326 103.013806,92.3925178 C103.610277,93.298803 104.764683,93.6563073 105.768962,93.2457531 C106.773241,92.8351988 107.346602,91.7713747 107.137369,90.7067843 C106.928136,89.6421939 105.994811,88.8744576 104.909855,88.874551 L104.909855,88.874551 Z" id="形状" fill="#EEEEEF" fill-rule="nonzero"></path>
                    <path d="M214.079855,41.254551 C214.794233,41.9711674 215.87014,42.186491 216.805286,41.7999973 C217.740432,41.4135036 218.350384,40.5014183 218.350384,39.489551 C218.350384,38.4776838 217.740432,37.5655985 216.805286,37.1791048 C215.87014,36.7926111 214.794233,37.0079347 214.079855,37.724551 C213.61025,38.1918621 213.346236,38.8270499 213.346236,39.489551 C213.346236,40.1520522 213.61025,40.78724 214.079855,41.254551 Z" id="路径" fill="#EEEEEF" fill-rule="nonzero"></path>
                    <path d="M215.839855,42.234551 C215.112213,42.2381124 214.413482,41.9499758 213.899855,41.434551 L213.899855,41.434551 C213.204973,40.7396695 212.933591,39.7268575 213.187935,38.7776316 C213.442279,37.8284056 214.183709,37.0869758 215.132935,36.8326315 C216.082161,36.5782872 217.094973,36.8496694 217.789855,37.544551 C218.858912,38.6208675 218.858912,40.3582346 217.789855,41.434551 C217.273154,41.9515023 216.570739,42.2396727 215.839855,42.234551 L215.839855,42.234551 Z M215.839855,37.234551 C215.244033,37.234551 214.672759,37.4719166 214.252389,37.8941634 C213.832019,38.3164102 213.597195,38.8887354 213.599822,39.484551 C213.596625,40.0798687 213.830509,40.6519843 214.249855,41.074551 L214.249855,41.074551 C215.142494,41.9266173 216.547215,41.9266173 217.439855,41.074551 C218.311745,40.1938418 218.311745,38.7752603 217.439855,37.894551 C217.013396,37.4737151 216.438991,37.2367732 215.839855,37.234551 Z" id="形状" fill="#EEEEEF" fill-rule="nonzero"></path>
                    <path d="M218.789855,73.454551 C219.504233,74.1711674 220.58014,74.386491 221.515286,73.9999973 C222.450432,73.6135036 223.060384,72.7014183 223.060384,71.689551 C223.060384,70.6776838 222.450432,69.7655985 221.515286,69.3791048 C220.58014,68.9926111 219.504233,69.2079347 218.789855,69.924551 C218.32025,70.3918621 218.056236,71.0270499 218.056236,71.689551 C218.056236,72.3520522 218.32025,72.98724 218.789855,73.454551 L218.789855,73.454551 Z" id="路径" fill="#EEEEEF" fill-rule="nonzero"></path>
                    <path d="M220.559855,74.434551 C219.82897,74.4396727 219.126555,74.1515023 218.609855,73.634551 L218.609855,73.634551 C217.540797,72.5582346 217.540797,70.8208675 218.609855,69.744551 C219.48839,68.8619053 220.850419,68.6798178 221.929957,69.3006914 C223.009496,69.9215651 223.537053,71.1904075 223.215939,72.3936421 C222.894825,73.5968768 221.805201,74.4341329 220.559855,74.434551 L220.559855,74.434551 Z M218.969855,73.274551 C219.859131,74.1253557 221.260578,74.1253557 222.149855,73.274551 C222.57381,72.8542585 222.811548,72.2815281 222.809864,71.684551 C222.807157,71.0884511 222.570089,70.5173338 222.149855,70.094551 C221.260578,69.2437464 219.859131,69.2437464 218.969855,70.094551 C218.092494,70.9730037 218.092494,72.3960984 218.969855,73.274551 L218.969855,73.274551 Z" id="形状" fill="#EEEEEF" fill-rule="nonzero"></path>
                    <path d="M202.689855,192.834551 C203.404233,193.551167 204.48014,193.766491 205.415286,193.379997 C206.350432,192.993504 206.960384,192.081418 206.960384,191.069551 C206.960384,190.057684 206.350432,189.145598 205.415286,188.759105 C204.48014,188.372611 203.404233,188.587935 202.689855,189.304551 C202.22025,189.771862 201.956236,190.40705 201.956236,191.069551 C201.956236,191.732052 202.22025,192.36724 202.689855,192.834551 Z" id="路径" fill="#EEEEEF" fill-rule="nonzero"></path>
                    <path d="M204.439855,193.814552 C203.709831,193.815261 203.009041,193.527757 202.489855,193.014551 L202.489855,193.014551 C201.554454,192.087164 201.404741,190.628031 202.132326,189.530014 C202.859911,188.431997 204.261998,188.001142 205.480632,188.501094 C206.699266,189.001046 207.394782,190.292457 207.141586,191.585095 C206.888389,192.877733 205.757053,193.811307 204.439855,193.814552 L204.439855,193.814552 Z M202.849855,192.664551 C203.729701,193.539968 205.152257,193.537575 206.029153,192.659202 C206.906049,191.78083 206.906049,190.358272 206.029153,189.4799 C205.152257,188.601527 203.729701,188.599134 202.849855,189.474551 C201.971344,190.356431 201.971344,191.782671 202.849855,192.664551 Z" id="形状" fill="#EEEEEF" fill-rule="nonzero"></path>
                    <path d="M92.1398546,294.344551 C92.8542329,295.061167 93.9301403,295.276491 94.8652863,294.889997 C95.8004323,294.503504 96.4103842,293.591418 96.4103842,292.579551 C96.4103842,291.567684 95.8004323,290.655598 94.8652863,290.269105 C93.9301403,289.882611 92.8542329,290.097935 92.1398546,290.814551 C91.1672273,291.790225 91.1672273,293.368877 92.1398546,294.344551 L92.1398546,294.344551 Z" id="路径" fill="#EEEEEF" fill-rule="nonzero"></path>
                    <path d="M93.9098546,295.334553 C93.1807637,295.33547 92.4818263,295.043646 91.9698546,294.524551 L91.9698546,294.524551 C90.9007974,293.448235 90.9007974,291.710867 91.9698546,290.634551 C92.8516752,289.757672 94.2122311,289.581714 95.2881178,290.205406 C96.3640045,290.829098 96.8874355,292.097204 96.5647152,293.298194 C96.2419948,294.499183 95.1534476,295.334131 93.9098546,295.334553 L93.9098546,295.334553 Z M92.3198546,294.174551 C93.1983072,295.051911 94.6214019,295.051911 95.4998546,294.174551 C96.3772147,293.296098 96.3772147,291.873004 95.4998546,290.994551 C94.6105783,290.143746 93.2091309,290.143746 92.3198546,290.994551 C91.4424944,291.873004 91.4424944,293.296098 92.3198546,294.174551 L92.3198546,294.174551 Z" id="形状" fill="#EEEEEF" fill-rule="nonzero"></path>
                    <path d="M282.209855,87.004551 C282.924233,87.7211674 284.00014,87.936491 284.935286,87.5499973 C285.870432,87.1635036 286.480384,86.2514183 286.480384,85.239551 C286.480384,84.2276838 285.870432,83.3155985 284.935286,82.9291048 C284.00014,82.5426111 282.924233,82.7579347 282.209855,83.474551 C281.74025,83.9418621 281.476236,84.5770499 281.476236,85.239551 C281.476236,85.9020522 281.74025,86.53724 282.209855,87.004551 Z" id="路径" fill="#EEEEEF" fill-rule="nonzero"></path>
                    <path d="M283.979855,87.984551 C283.231716,88.0032856 282.508689,87.7140749 281.979855,87.184551 C281.186628,86.396674 280.947066,85.2080874 281.373164,84.1744532 C281.799262,83.140819 282.806839,82.466344 283.924855,82.466344 C285.04287,82.466344 286.050447,83.140819 286.476545,84.1744532 C286.902643,85.2080874 286.663081,86.396674 285.869855,87.184551 C285.36849,87.6877847 284.690149,87.974913 283.979855,87.984551 Z M283.979855,82.984551 C283.07043,82.9853509 282.250907,83.5335362 281.902994,84.3737805 C281.55508,85.2140248 281.747194,86.1810906 282.389855,86.824551 C283.279131,87.6753557 284.680578,87.6753557 285.569855,86.824551 C286.212515,86.1810906 286.404629,85.2140248 286.056716,84.3737805 C285.708802,83.5335362 284.88928,82.9853509 283.979855,82.984551 L283.979855,82.984551 Z" id="形状" fill="#EEEEEF" fill-rule="nonzero"></path>
                    <rect id="矩形" fill="#EEEEEF" fill-rule="nonzero" transform="translate(119.122897, 24.621189) rotate(-8.130000) translate(-119.122897, -24.621189) " x="118.872897" y="21.6411892" width="1" height="5.96"></rect>
                    <path d="M200.059855,293.094551 C196.225204,293.090261 192.393367,292.886653 188.579855,292.484551 L188.629855,291.984551 C214.419855,294.684551 235.719855,288.444551 250.229855,273.984551 C286.669855,237.544551 267.949855,159.534551 208.509855,100.094551 C179.699855,71.284551 145.729855,51.094551 112.869855,43.214551 C80.0098546,35.334551 52.2598546,40.744551 34.6198546,58.374551 C19.3198546,73.674551 13.1398546,97.374551 17.1998546,124.974551 L16.7098546,125.044551 C12.6198546,97.234551 18.8498546,73.434551 34.2698546,58.044551 C52.0298546,40.284551 79.9898546,34.844551 112.989855,42.744551 C145.989855,50.644551 179.989855,70.884551 208.859855,99.744551 C268.499855,159.384551 287.219855,237.744551 250.579855,274.344551 C238.179855,286.684551 220.859855,293.094551 200.059855,293.094551 Z" id="路径" fill="#EEEEEF" fill-rule="nonzero"></path>
                    <path d="M92.1898546,270.204551 C62.1898546,270.204551 37.9598546,259.774551 23.4798546,240.424551 C9.95985457,222.354551 6.26985457,198.604551 12.7898546,171.734551 L13.2798546,171.854551 C6.78985457,198.574551 10.4498546,222.184551 23.8798546,240.124551 C39.5698546,261.124551 66.7698546,271.514551 100.459855,269.444551 C134.149855,267.374551 170.439855,253.054551 202.379855,229.114551 C268.379855,179.724551 295.709855,104.294551 263.289855,60.974551 C249.099855,41.974551 224.949855,31.504551 195.289855,31.404551 L195.289855,30.904551 C225.109855,31.004551 249.399855,41.574551 263.689855,60.674551 C296.279855,104.214551 268.909855,179.964551 202.689855,229.514551 C170.619855,253.514551 134.329855,267.874551 100.499855,269.944551 C97.6865212,270.111218 94.9165212,270.197884 92.1898546,270.204551 Z" id="路径" fill="#EEEEEF" fill-rule="nonzero"></path>
                    <path d="M214.059855,211.904551 C189.849855,211.904551 162.929855,208.514551 135.589855,201.904551 C95.6998546,192.264551 59.6998546,176.904551 34.2398546,158.694551 C8.77985457,140.484551 -3.19014543,121.424551 0.729854574,105.194551 C4.64985457,88.964551 23.9098546,77.494551 54.9598546,72.894551 C86.0098546,68.294551 124.959855,71.084551 164.869855,80.714551 C204.779855,90.344551 240.769855,105.714551 266.229855,123.934551 C291.689855,142.154551 303.649855,161.204551 299.729855,177.424551 C295.809855,193.644551 276.549855,205.124551 245.499855,209.724551 C235.087354,211.219909 224.579091,211.948535 214.059855,211.904551 Z M86.4398546,71.244551 C75.9447676,71.1958432 65.4601602,71.9144248 55.0698546,73.394551 C24.2298546,77.974551 5.11985457,89.314551 1.24985457,105.324551 C-2.62014543,121.334551 9.24985457,140.154551 34.5598546,158.324551 C59.8698546,176.494551 95.8998546,191.834551 135.739855,201.454551 C217.909855,221.304551 291.269855,210.454551 299.279855,177.344551 C303.149855,161.344551 291.279855,142.524551 265.969855,124.344551 C240.659855,106.164551 204.619855,90.834551 164.779855,81.214551 C137.439855,74.584551 110.569855,71.244551 86.4398546,71.244551 Z" id="形状" fill="#EEEEEF" fill-rule="nonzero"></path>
                    <path d="M184.329855,308.256109 C169.519855,308.256109 152.819855,295.954551 136.609855,272.894551 C118.209855,246.684551 102.609855,209.704551 92.7298546,168.764551 C82.8498546,127.824551 79.8298546,87.764551 84.2398546,56.094551 C88.6498546,24.424551 100.039855,4.63455104 116.239855,0.714551044 C132.439855,-3.20544896 151.559855,9.09455104 170.009855,35.364551 C188.459855,61.634551 204.009855,98.544551 213.889855,139.494551 C223.769855,180.444551 226.789855,220.494551 222.379855,252.164551 C217.969855,283.834551 206.609855,303.584551 190.439855,307.584551 C188.437456,308.052274 186.386029,308.277226 184.329855,308.256109 Z M122.329855,0.494501692 C120.329048,0.490585746 118.334928,0.72558309 116.389855,1.19455104 C100.389855,5.06455104 89.1398546,24.584551 84.7498546,56.194551 C80.3598546,87.804551 83.3498546,127.794551 93.2298546,168.674551 C103.109855,209.554551 118.659855,246.484551 137.029855,272.674551 C155.399855,298.864551 174.259855,310.994551 190.279855,307.124551 C223.439855,299.054551 233.799855,223.934551 213.439855,139.584551 C203.569855,98.704551 188.009855,61.784551 169.639855,35.584551 C153.529855,12.724551 136.969855,0.494501692 122.319855,0.494501692 L122.329855,0.494501692 Z" id="形状" fill="#EEEEEF" fill-rule="nonzero"></path>
                    <path d="M132.899855,266.194551 C132.185476,266.911167 131.109569,267.126491 130.174423,266.739997 C129.239277,266.353504 128.629325,265.441418 128.629325,264.429551 C128.629325,263.417684 129.239277,262.505598 130.174423,262.119105 C131.109569,261.732611 132.185476,261.947935 132.899855,262.664551 C133.369459,263.131862 133.633473,263.76705 133.633473,264.429551 C133.633473,265.092052 133.369459,265.72724 132.899855,266.194551 L132.899855,266.194551 Z" id="路径" fill="#EEEEEF" fill-rule="nonzero"></path>
                    <path d="M131.139855,267.174552 C130.409831,267.175261 129.709041,266.887757 129.189855,266.374551 C128.396628,265.586674 128.157066,264.398087 128.583164,263.364453 C129.009262,262.330819 130.016839,261.656344 131.134855,261.656344 C132.25287,261.656344 133.260447,262.330819 133.686545,263.364453 C134.112643,264.398087 133.873081,265.586674 133.079855,266.374551 L133.079855,266.374551 C132.564353,266.887164 131.866844,267.174796 131.139855,267.174552 L131.139855,267.174552 Z M131.139855,262.174551 C130.543319,262.175076 129.971407,262.412474 129.549855,262.834551 C128.947895,263.395463 128.700107,264.240218 128.903698,265.037418 C129.107289,265.834618 129.729788,266.457117 130.526988,266.660708 C131.324188,266.864299 132.168943,266.616511 132.729855,266.014551 C133.372515,265.371091 133.564629,264.404025 133.216716,263.563781 C132.868802,262.723536 132.04928,262.175351 131.139855,262.174551 L131.139855,262.174551 Z" id="形状" fill="#EEEEEF" fill-rule="nonzero"></path>
                    <path d="M225.579855,212.784551 C224.865476,213.501167 223.789569,213.716491 222.854423,213.329997 C221.919277,212.943504 221.309325,212.031418 221.309325,211.019551 C221.309325,210.007684 221.919277,209.095598 222.854423,208.709105 C223.789569,208.322611 224.865476,208.537935 225.579855,209.254551 C226.049459,209.721862 226.313473,210.35705 226.313473,211.019551 C226.313473,211.682052 226.049459,212.31724 225.579855,212.784551 Z" id="路径" fill="#EEEEEF" fill-rule="nonzero"></path>
                    <path d="M223.819855,213.774583 C222.502117,213.780882 221.363709,212.854795 221.101701,211.563353 C220.839692,210.27191 221.527176,208.975386 222.743192,208.467668 C223.959208,207.95995 225.364523,208.382677 226.098635,209.477004 C226.832747,210.571331 226.69086,212.031974 225.759855,212.964551 L225.759855,212.964551 C225.247245,213.4827 224.548722,213.774352 223.819855,213.774583 Z M223.819855,208.774546 C223.220072,208.773522 222.644479,209.010954 222.219855,209.434551 C221.798614,209.855861 221.564393,210.428803 221.569855,211.024551 C221.568811,211.619443 221.802367,212.190756 222.219855,212.614551 C223.109131,213.465356 224.510578,213.465356 225.399855,212.614551 L225.399855,212.614551 C226.277215,211.736098 226.277215,210.313004 225.399855,209.434551 C224.983278,209.011169 224.413813,208.773292 223.819855,208.774546 L223.819855,208.774546 Z" id="形状" fill="#EEEEEF" fill-rule="nonzero"></path>
                    <path d="M258.759855,171.754551 C257.782893,172.729046 256.20113,172.727713 255.225812,171.751573 C254.250494,170.775433 254.250494,169.193669 255.225812,168.217529 C256.20113,167.241389 257.782893,167.240056 258.759855,168.214551 C259.230063,168.683572 259.494323,169.320415 259.494323,169.984551 C259.494323,170.648687 259.230063,171.28553 258.759855,171.754551 Z" id="路径" fill="#EEEEEF" fill-rule="nonzero"></path>
                    <path d="M256.999855,172.734551 C255.676579,172.742876 254.53222,171.814066 254.268145,170.517382 C254.004069,169.220697 254.694037,167.918319 255.915174,167.408463 C257.13631,166.898607 258.547534,167.323683 259.283921,168.423166 C260.020307,169.522649 259.876172,170.989438 258.939855,171.924551 L258.939855,171.924551 C258.427245,172.4427 257.728722,172.734352 256.999855,172.734551 L256.999855,172.734551 Z M256.999855,167.734551 C256.402432,167.730593 255.828858,167.96868 255.409855,168.394551 C254.583778,169.28108 254.608153,170.66258 255.464989,171.519416 C256.321825,172.376253 257.703325,172.400628 258.589855,171.574551 L258.589855,171.574551 C259.467215,170.696098 259.467215,169.273004 258.589855,168.394551 C258.170203,167.969642 257.597054,167.731731 256.999855,167.734551 Z" id="形状" fill="#EEEEEF" fill-rule="nonzero"></path>
                    <path d="M275.649855,132.084551 C274.935476,132.801167 273.859569,133.016491 272.924423,132.629997 C271.989277,132.243504 271.379325,131.331418 271.379325,130.319551 C271.379325,129.307684 271.989277,128.395598 272.924423,128.009105 C273.859569,127.622611 274.935476,127.837935 275.649855,128.554551 C276.119459,129.021862 276.383473,129.65705 276.383473,130.319551 C276.383473,130.982052 276.119459,131.61724 275.649855,132.084551 L275.649855,132.084551 Z" id="路径" fill="#EEEEEF" fill-rule="nonzero"></path>
                    <path d="M273.879855,133.074556 C272.563042,133.076092 271.428541,132.14717 271.170243,130.855938 C270.911944,129.564706 271.601798,128.27084 272.817871,127.765702 C274.033944,127.260564 275.437496,127.684861 276.170079,128.779083 C276.902661,129.873305 276.760211,131.332652 275.829855,132.264551 L275.829855,132.264551 C275.314171,132.784223 274.611965,133.075908 273.879855,133.074556 L273.879855,133.074556 Z M273.879855,128.074551 C273.282655,128.071731 272.709506,128.309642 272.289855,128.734551 C271.412494,129.613004 271.412494,131.036098 272.289855,131.914551 C273.179131,132.765356 274.580578,132.765356 275.469855,131.914551 C276.347215,131.036098 276.347215,129.613004 275.469855,128.734551 C275.050851,128.30868 274.477278,128.070593 273.879855,128.074551 Z" id="形状" fill="#EEEEEF" fill-rule="nonzero"></path>
                    <path d="M269.369855,206.304551 C268.655476,207.021167 267.579569,207.236491 266.644423,206.849997 C265.709277,206.463504 265.099325,205.551418 265.099325,204.539551 C265.099325,203.527684 265.709277,202.615598 266.644423,202.229105 C267.579569,201.842611 268.655476,202.057935 269.369855,202.774551 C270.342482,203.750225 270.342482,205.328877 269.369855,206.304551 Z" id="路径" fill="#EEEEEF" fill-rule="nonzero"></path>
                    <path d="M267.599855,207.284551 C266.084968,207.284607 264.855363,206.059427 264.849839,204.544551 C264.845747,203.297976 265.680667,202.204558 266.884312,201.880208 C268.087958,201.555857 269.359229,202.081714 269.982031,203.161567 C270.604834,204.24142 270.423369,205.605138 269.539855,206.484551 L269.539855,206.484551 C269.026865,207.000928 268.327716,207.289237 267.599855,207.284551 Z M267.599855,202.284551 C266.357214,202.284551 265.349855,203.29191 265.349855,204.534551 C265.350654,205.443976 265.89884,206.263498 266.739084,206.611412 C267.579328,206.959326 268.546394,206.767212 269.189855,206.124551 L269.189855,206.124551 C269.832515,205.481091 270.024629,204.514025 269.676716,203.673781 C269.328802,202.833536 268.50928,202.285351 267.599855,202.284551 L267.599855,202.284551 Z" id="形状" fill="#EEEEEF" fill-rule="nonzero"></path>
                    <path d="M200.059855,92.234551 C199.082893,93.209046 197.50113,93.2077131 196.525812,92.231573 C195.550494,91.255433 195.550494,89.6736691 196.525812,88.6975291 C197.50113,87.721389 199.082893,87.7200561 200.059855,88.694551 C201.028202,89.6758863 201.028202,91.2532158 200.059855,92.234551 Z" id="路径" fill="#EEEEEF" fill-rule="nonzero"></path>
                    <path d="M198.289855,93.2145768 C197.560313,93.2177365 196.860532,92.9255598 196.349855,92.404551 C195.831384,91.8901017 195.53977,91.189941 195.53977,90.459551 C195.53977,89.7291611 195.831384,89.0290004 196.349855,88.514551 C196.861552,87.9962464 197.561551,87.707587 198.289855,87.714551 C199.017496,87.7109897 199.716228,87.9991263 200.229855,88.514551 C201.009524,89.3034513 201.241193,90.4824413 200.818,91.5077006 C200.394808,92.5329599 199.398981,93.2052817 198.289855,93.2145768 L198.289855,93.2145768 Z M198.289855,88.214551 C197.692432,88.2105926 197.118858,88.4486799 196.699855,88.874551 C195.822494,89.7530037 195.822494,91.1760984 196.699855,92.054551 C197.589131,92.9053557 198.990578,92.9053557 199.879855,92.054551 L199.879855,92.054551 C200.522515,91.4110906 200.714629,90.4440248 200.366716,89.6037805 C200.018802,88.7635362 199.19928,88.2153509 198.289855,88.214551 L198.289855,88.214551 Z" id="形状" fill="#EEEEEF" fill-rule="nonzero"></path>
                    <path d="M89.1198546,40.584551 C88.142893,41.559046 86.5611297,41.5577131 85.5858119,40.581573 C84.610494,39.605433 84.610494,38.0236691 85.5858119,37.0475291 C86.5611297,36.071389 88.142893,36.0700561 89.1198546,37.044551 C90.0882024,38.0258863 90.0882024,39.6032158 89.1198546,40.584551 L89.1198546,40.584551 Z" id="路径" fill="#EEEEEF" fill-rule="nonzero"></path>
                    <path d="M87.3498546,41.584551 C86.0435263,41.5605759 84.9344112,40.6207567 84.6963508,39.3360794 C84.4582905,38.0514022 85.1570151,36.7765766 86.3680156,36.2861215 C87.579016,35.7956663 88.9679253,36.2250001 89.6909132,37.3132817 C90.4139011,38.4015633 90.271345,39.8483093 89.3498546,40.774551 C88.8227062,41.3077415 88.0994666,41.6006536 87.3498546,41.584551 L87.3498546,41.584551 Z M87.3498546,36.5845263 C86.7526552,36.5817313 86.1795062,36.8196422 85.7598546,37.244551 C84.8824944,38.1230037 84.8824944,39.5460984 85.7598546,40.424551 C86.6491309,41.2753557 88.0505783,41.2753557 88.9398546,40.424551 C89.5825155,39.7810906 89.7746292,38.8140248 89.4267155,37.9737805 C89.0788018,37.1335362 88.2592795,36.5853509 87.3498546,36.5845263 L87.3498546,36.5845263 Z" id="形状" fill="#EEEEEF" fill-rule="nonzero"></path>
                    <path d="M84.4398546,72.794551 C83.462893,73.769046 81.8811297,73.7677131 80.9058119,72.791573 C79.930494,71.815433 79.930494,70.2336691 80.9058119,69.2575291 C81.8811297,68.281389 83.462893,68.2800561 84.4398546,69.254551 C85.4082024,70.2358863 85.4082024,71.8132158 84.4398546,72.794551 L84.4398546,72.794551 Z" id="路径" fill="#EEEEEF" fill-rule="nonzero"></path>
                    <path d="M82.6398546,73.7745663 C81.3276581,73.7788893 80.195202,72.8555279 79.9352604,71.5693286 C79.6753188,70.2831292 80.360318,68.9924592 81.5712132,68.4868792 C82.7821085,67.9812993 84.1815141,68.4016766 84.9133508,69.4908475 C85.6451875,70.5800185 85.5055474,72.0345128 84.5798546,72.964551 C84.0678829,73.4836457 83.3689454,73.7754701 82.6398546,73.7745663 Z M82.6398546,68.7745421 C81.5663833,68.773606 80.6417487,69.5311225 80.4314658,70.5837965 C80.2211829,71.6364704 80.7838246,72.6910864 81.775274,73.1026314 C82.7667235,73.5141765 83.9108189,73.1680175 84.507821,72.2758685 C85.1048231,71.3837194 84.9884408,70.1940827 84.2298546,69.434551 C83.809562,69.0105951 83.2368316,68.772858 82.6398546,68.7745421 Z" id="形状" fill="#EEEEEF" fill-rule="nonzero"></path>
                    <path d="M100.509855,192.174551 C99.532893,193.149046 97.9511297,193.147713 96.9758119,192.171573 C96.000494,191.195433 96.000494,189.613669 96.9758119,188.637529 C97.9511297,187.661389 99.532893,187.660056 100.509855,188.634551 C101.478202,189.615886 101.478202,191.193216 100.509855,192.174551 L100.509855,192.174551 Z" id="路径" fill="#EEEEEF" fill-rule="nonzero"></path>
                    <path d="M98.7398546,193.154551 C97.4165792,193.162876 96.2722203,192.234066 96.0081448,190.937382 C95.7440693,189.640697 96.4340371,188.338319 97.6551735,187.828463 C98.8763099,187.318607 100.287534,187.743683 101.023921,188.843166 C101.760307,189.942649 101.616172,191.409438 100.679855,192.344551 L100.679855,192.344551 C100.167883,192.863646 99.4689454,193.15547 98.7398546,193.154551 Z M98.7398546,188.154551 C98.1424316,188.150593 97.5688577,188.38868 97.1498546,188.814551 C96.323778,189.70108 96.3481529,191.08258 97.2049892,191.939416 C98.0618254,192.796253 99.4433253,192.820628 100.329855,191.994551 C100.972515,191.351091 101.164629,190.384025 100.816716,189.543781 C100.468802,188.703536 99.6492795,188.155351 98.7398546,188.154551 L98.7398546,188.154551 Z" id="形状" fill="#EEEEEF" fill-rule="nonzero"></path>
                    <path d="M211.049855,293.684551 C210.072893,294.659046 208.49113,294.657713 207.515812,293.681573 C206.540494,292.705433 206.540494,291.123669 207.515812,290.147529 C208.49113,289.171389 210.072893,289.170056 211.049855,290.144551 C211.522538,290.612252 211.788512,291.249589 211.788512,291.914551 C211.788512,292.579513 211.522538,293.21685 211.049855,293.684551 Z" id="路径" fill="#EEEEEF" fill-rule="nonzero"></path>
                    <path d="M209.279855,294.664551 C208.041061,294.641392 206.970731,293.79268 206.665825,292.591773 C206.36092,291.390866 206.896744,290.134358 207.974449,289.52305 C209.052154,288.911742 210.405573,289.096612 211.279855,289.974551 C212.348912,291.050867 212.348912,292.788235 211.279855,293.864551 L211.279855,293.864551 C210.748423,294.390126 210.02715,294.678635 209.279855,294.664551 Z M209.279855,289.664551 C208.37043,289.665351 207.550907,290.213536 207.202994,291.053781 C206.85508,291.894025 207.047194,292.861091 207.689855,293.504551 C208.579131,294.355356 209.980578,294.355356 210.869855,293.504551 L210.869855,293.504551 C211.512515,292.861091 211.704629,291.894025 211.356716,291.053781 C211.008802,290.213536 210.18928,289.665351 209.279855,289.664551 L209.279855,289.664551 Z" id="形状" fill="#EEEEEF" fill-rule="nonzero"></path>
                    <path d="M20.9898546,86.334551 C20.2754763,87.0511674 19.1995689,87.266491 18.2644229,86.8799973 C17.3292769,86.4935036 16.719325,85.5814183 16.719325,84.569551 C16.719325,83.5576838 17.3292769,82.6455985 18.2644229,82.2591048 C19.1995689,81.8726111 20.2754763,82.0879347 20.9898546,82.804551 C21.9624818,83.7802254 21.9624818,85.3588767 20.9898546,86.334551 Z" id="路径" fill="#EEEEEF" fill-rule="nonzero"></path>
                    <path d="M19.2198546,87.324551 C17.8965792,87.3328757 16.7522203,86.4040664 16.4881448,85.1073817 C16.2240693,83.810697 16.9140371,82.508319 18.1351735,81.9984631 C19.3563099,81.4886072 20.7675343,81.9136832 21.5039205,83.013166 C22.2403067,84.1126489 22.0961718,85.5794375 21.1598546,86.514551 C20.6478829,87.0336457 19.9489454,87.3254701 19.2198546,87.324551 Z M19.2198546,82.3245421 C18.6228775,82.322858 18.0501471,82.5605951 17.6298546,82.984551 C16.7524944,83.8630037 16.7524944,85.2860984 17.6298546,86.164551 C18.3497938,86.885386 19.464245,87.0325274 20.3465973,86.5232437 C21.2289496,86.0139601 21.6589989,84.9753505 21.3949458,83.9913833 C21.1308926,83.0074162 20.2386355,82.323655 19.2198546,82.3245421 L19.2198546,82.3245421 Z" id="形状" fill="#EEEEEF" fill-rule="nonzero"></path>
                </g>
                <g id="freepik--Icons--inject-4" transform="translate(7.988004, 19.424551)">
                    <g id="编组-6" transform="translate(0.000000, 174.749997)">
                        <path d="M18.09,36.1800221 L18.09,36.1800221 C8.09916888,36.1800221 0,28.0808422 0,18.0900111 L0,18.0900111 C0,8.09917995 8.09916888,0 18.09,0 L18.09,0 C22.8912306,-0.00529709132 27.4976326,1.89826455 30.8944926,5.29137314 C34.2913525,8.68448173 36.2,13.2887775 36.2,18.0900111 L36.2,18.0900111 C36.2,22.8912446 34.2913525,27.4955404 30.8944926,30.888649 C27.4976326,34.2817576 22.8912306,36.1853192 18.09,36.1800221 Z" id="路径" stroke="#121314" fill="#FFFFFF" fill-rule="nonzero" stroke-linecap="round" stroke-linejoin="round"></path>
                        <g id="钱包" transform="translate(11.011996, 10.825452)" fill="#121314" fill-rule="nonzero">
                            <path d="M13.3544841,4.31721938 L11.8172019,4.31721938 L11.8172019,2.77972786 C11.8172019,2.42325713 11.5281723,2.13422724 11.171702,2.13422724 L4.06738831,2.13422723 C3.10963371,2.13422723 2.33049736,2.9134762 2.33049736,3.87132767 C2.33049736,4.82908336 3.10963371,5.6082206 4.06738831,5.6082206 L12.7089843,5.6082206 L12.7089843,11.1250569 C12.7089843,11.9984357 11.9982305,12.7089828 11.1246451,12.7089828 L2.87503563,12.7089828 C2.0016578,12.7089828 1.29101573,11.9984517 1.29101573,11.1250569 L1.29101573,2.87513469 C1.29101573,2.00164413 2.0016578,1.29100124 2.87503563,1.29100124 L11.1246451,1.29100124 C11.9982464,1.29100124 12.7089843,2.00164413 12.7089843,2.87513469 C12.7089843,3.23160542 12.9980138,3.52063531 13.3544842,3.52063531 C13.7109545,3.52063531 14,3.23160542 14,2.87513469 C14,1.28974022 12.7101335,0 11.1246291,0 L2.87503563,0 C1.28975471,0 0,1.28974022 0,2.87513468 L0,11.1250728 C0,12.7103556 1.28973875,14 2.87503563,14 L11.1246451,14 C12.7101495,14 14,12.7103556 14,11.1250728 L14,4.96271999 C14,4.60624926 13.7109704,4.31721938 13.3544841,4.31721938 Z M10.5262021,4.31721938 L4.06738831,4.31721938 C3.8215368,4.31721938 3.62149713,4.11717948 3.62149713,3.87132769 C3.62149713,3.62538012 3.8215368,3.42522849 4.06738831,3.42522849 L10.5262021,3.42522849 L10.5262021,4.31721938 Z" id="形状"></path>
                        </g>
                        <polygon id="矩形" fill="#FFFFFF" points="18.0119964 16.8254517 30.5119964 16.8254517 30.6786631 27.3254517 18.0119964 27.3254517"></polygon>
                        <g id="链接" transform="translate(19.011996, 17.825452)" fill="#0F5BF3" fill-rule="nonzero">
                            <path d="M5.15789474,4.87058823 L5.89473685,4.12941177 L6.15789474,4.39411764 L7.57894737,2.96470588 L6.10526315,1.48235295 L4.68421052,2.91176471 L4.73684211,3.01764706 L4,3.75882353 L3.15789474,2.85882353 L6,0 L9,3.01764706 L6.15789474,5.87647059 L5.15789474,4.87058823 L5.15789474,4.87058823 Z M3.7368421,4.02352942 L3,4.76470588 L2.89473685,4.65882354 L1.47368421,6.0882353 L2.94736842,7.57058823 L4.36842105,6.14117647 L4.10526316,5.87647059 L4.84210526,5.13529412 L5.84210526,6.14117647 L3,9 L0,6.03529412 L2.84210526,3.17647059 L3.7368421,4.02352942 L3.7368421,4.02352942 Z M5.47368421,2.64705882 L6.21052632,3.3882353 L3.36842106,6.24705883 L2.63157894,5.50588235 L5.47368421,2.64705882 Z" id="形状"></path>
                        </g>
                    </g>
                    <path d="M218.22,44.92 L218.22,44.92 C208.229169,44.92 200.13,36.8208311 200.13,26.83 L200.13,26.83 C200.13,22.0331528 202.036224,17.4329179 205.429044,14.0419726 C208.821865,10.6510272 213.423153,8.74734688 218.22,8.74999723 L218.22,8.74999723 C223.015928,8.74734518 227.616189,10.6513443 231.007422,14.0425777 C234.398656,17.4338111 236.302655,22.0340725 236.300003,26.83 L236.300003,26.83 C236.302653,31.6268465 234.398973,36.2281347 231.008027,39.6209556 C227.617082,43.0137764 223.016847,44.92 218.22,44.92 L218.22,44.92 Z" id="路径" stroke="#263238" fill="#FFFFFF" fill-rule="nonzero"></path>
                    <path d="M242.22,245.92 L242.22,245.92 C232.229169,245.92 224.13,237.820831 224.13,227.83 L224.13,227.83 C224.13,223.033153 226.036224,218.432918 229.429044,215.041973 C232.821865,211.651027 237.423153,209.747347 242.22,209.749997 L242.22,209.749997 C247.015928,209.747345 251.616189,211.651344 255.007422,215.042578 C258.398656,218.433811 260.302655,223.034072 260.300003,227.83 L260.300003,227.83 C260.302653,232.626847 258.398973,237.228135 255.008027,240.620956 C251.617082,244.013776 247.016847,245.92 242.22,245.92 L242.22,245.92 Z" id="路径备份" stroke="#263238" fill="#FFFFFF" fill-rule="nonzero"></path>
                    <g id="编组-5" transform="translate(69.000000, 0.000000)">
                        <circle id="椭圆形" stroke="#121314" fill="#FFFFFF" fill-rule="nonzero" cx="18.28" cy="18.28" r="18.28"></circle>
                        <g id="身份识别认证" transform="translate(7.011996, 10.575449)">
                            <path d="M4.37142857,11.0116571 L4.37142857,14.6285714 L7.77257143,14.6285714 L7.77257143,16 L3,16 L3,11.0116571 L4.37142857,11.0116571 Z M19,11.0116571 L19,16 L14.2265143,16 L14.2265143,14.6285714 L17.6281143,14.6285714 L17.6285714,11.0116571 L19,11.0116571 L19,11.0116571 Z M11,3.2 C12.2085868,3.2 13.2967983,3.93190515 13.7523798,5.05133691 C14.2079613,6.17076868 13.9401336,7.45460886 13.0749714,8.29851429 C14.4343124,9.03756385 15.2975967,10.4442105 15.3410286,11.9908571 L15.3428572,12.1142857 L13.9714286,12.1142857 C13.9726894,10.4930763 12.6742153,9.17008501 11.0532659,9.14102366 C9.43231644,9.11196232 8.08725331,10.3875587 8.0304,12.0077714 L8.02857142,12.1142857 L6.65714252,12.1142857 C6.65652583,10.5226951 7.52676164,9.05832731 8.92502857,8.29805714 C8.06019875,7.45410403 7.79258437,6.17047872 8.24812381,5.05125073 C8.70366324,3.93202275 9.79161784,3.20013054 11,3.2 L11,3.2 Z M11,4.57142856 C10.428331,4.57136241 9.90005867,4.87630622 9.61420504,5.37137511 C9.32835142,5.866444 9.32835142,6.47641313 9.61420504,6.97148202 C9.90005867,7.46655091 10.428331,7.77149472 11,7.77142857 C11.8835833,7.77132631 12.5998148,7.05501186 12.5998148,6.17142857 C12.5998148,5.28784527 11.8835833,4.57153082 11,4.57142856 L11,4.57142856 Z M7.77302857,0 L7.77302857,1.37142857 L4.37142857,1.37142857 L4.37142857,4.55771428 L3,4.55771428 L3,0 L7.77302857,0 Z M19,0 L19,4.55771428 L17.6285714,4.55771428 L17.6281143,1.37142857 L14.2269714,1.37142857 L14.2269714,0 L19,0 Z" id="形状" fill="#121314" fill-rule="nonzero"></path>
                            <line x1="0" y1="6" x2="22" y2="6" id="路径-11" stroke="#0F5BF3" stroke-width="2"></line>
                        </g>
                    </g>
                    <path d="M302.59,113.76 C303.421889,109.237549 301.467594,104.656168 297.627524,102.12665 C293.787455,99.5971323 288.806677,99.6102659 284.98,102.16 C282.210181,95.2891454 274.95075,91.3538786 267.681719,92.7827707 C260.412688,94.2116628 255.182978,100.601952 255.22,108.01 C255.22,108.2 255.22,108.39 255.22,108.57 C250.684489,109.907279 247.694655,114.225386 248.038906,118.941387 C248.383157,123.657388 251.968369,127.495539 256.65,128.16 L256.65,128.27 L302.1,128.27 C306.07595,128.342184 309.374179,125.210581 309.508023,121.236229 C309.641867,117.261877 306.561798,113.915472 302.59,113.72 L302.59,113.76 Z" id="路径" stroke="#263238" fill="#FFFFFF" fill-rule="nonzero" stroke-linecap="round" stroke-linejoin="round"></path>
                </g>
                <g id="freepik--Character--inject-4" transform="translate(49.878004, 84.649505)">
                    <path d="M75.94,272.495046 C74.3782131,273.713955 72.8858788,275.01933 71.47,276.405046 C69.47,278.405046 63.71,280.695046 60.24,283.145046 C56.77,285.595046 58.81,288.045046 61.87,289.065046 C64.93,290.085046 73.72,289.265046 76.98,288.655046 C80.24,288.045046 81.89,284.165046 84.54,283.555046 C87.19,282.945046 92.1,285.185046 92.3,281.305046 C92.5,277.425046 92.71,273.545046 92.71,273.545046 L75.94,272.495046 Z" id="路径" stroke="#263238" fill="#FFFFFF" fill-rule="nonzero" stroke-linecap="round" stroke-linejoin="round"></path>
                    <path d="M92.33,281.305046 C92.33,280.515046 92.41,279.735046 92.45,278.975046 C90.23,280.575046 87.45,280.505046 83.75,281.305046 C79.06,282.305046 77.42,286.815046 68.03,287.225046 C61.95,287.485046 59.48,286.385046 58.48,285.575046 C58.31,287.085046 59.88,288.385046 61.9,289.065046 C64.97,290.065046 73.75,289.265046 77.01,288.655046 C80.27,288.045046 81.92,284.165046 84.57,283.555046 C87.22,282.945046 92.1,285.185046 92.33,281.305046 Z" id="路径" stroke="#263238" fill="#FFFFFF" fill-rule="nonzero" stroke-linecap="round" stroke-linejoin="round"></path>
                    <path d="M77.8,271.705046 C77.8,271.705046 73.1,277.425046 71.47,279.265046 C69.84,281.105046 74.53,280.485046 76.58,278.645046 C78.4856992,276.726859 80.2597324,274.68221 81.89,272.525046 L77.8,271.705046 Z" id="路径" stroke="#263238" fill="#FFFFFF" fill-rule="nonzero" stroke-linecap="round" stroke-linejoin="round"></path>
                    <path d="M142.17,272.495046 C143.731787,273.713955 145.224121,275.01933 146.64,276.405046 C148.64,278.405046 154.4,280.695046 157.87,283.145046 C161.34,285.595046 159.3,288.045046 156.24,289.065046 C153.18,290.085046 144.39,289.265046 141.13,288.655046 C137.87,288.045046 136.22,284.165046 133.57,283.555046 C130.92,282.945046 126.01,285.185046 125.81,281.305046 C125.61,277.425046 125.4,273.545046 125.4,273.545046 L142.17,272.495046 Z" id="路径" stroke="#263238" fill="#FFFFFF" fill-rule="nonzero" stroke-linecap="round" stroke-linejoin="round"></path>
                    <path d="M125.81,281.305046 C125.81,280.515046 125.73,279.735046 125.69,278.975046 C127.91,280.575046 130.69,280.505046 134.39,281.305046 C139.08,282.305046 140.72,286.815046 150.11,287.225046 C156.19,287.485046 158.66,286.385046 159.66,285.575046 C159.83,287.085046 158.26,288.385046 156.24,289.065046 C153.17,290.065046 144.39,289.265046 141.13,288.655046 C137.87,288.045046 136.22,284.165046 133.57,283.555046 C130.92,282.945046 126.01,285.185046 125.81,281.305046 Z" id="路径" stroke="#263238" fill="#FFFFFF" fill-rule="nonzero" stroke-linecap="round" stroke-linejoin="round"></path>
                    <path d="M140.33,271.705046 C140.33,271.705046 145.03,277.425046 146.66,279.265046 C148.29,281.105046 143.6,280.485046 141.55,278.645046 C139.644301,276.726859 137.870268,274.68221 136.24,272.525046 L140.33,271.705046 Z" id="路径" stroke="#263238" fill="#FFFFFF" fill-rule="nonzero" stroke-linecap="round" stroke-linejoin="round"></path>
                    <path d="M78.49,126.595046 C78.49,126.595046 75.94,149.595046 75.94,153.265046 C75.94,156.935046 75.94,203.755046 76.51,212.035046 C77.08,220.315046 74.23,223.715046 75.94,234.265046 C77.65,244.815046 78.22,263.365046 78.22,263.365046 C78.22,263.365046 75.94,264.795046 75.94,266.225046 L75.94,272.495046 L93.12,274.365046 C93.12,274.365046 94.2,259.665046 94.48,255.095046 C94.76,250.525046 99.05,221.735046 100.19,213.455046 C101.33,205.175046 105.83,158.075046 105.83,158.075046 C105.83,158.075046 113.31,210.325046 113.88,212.075046 C115.473508,216.164146 116.809454,220.348998 117.88,224.605046 C120.44,234.025046 122.73,266.545046 122.73,266.545046 L125.18,275.625046 L142.74,272.355046 C142.74,272.355046 140.13,257.705046 140.13,255.425046 C140.13,253.145046 139.56,253.995046 138.99,248.285046 C137.939095,237.676038 137.651689,227.005241 138.13,216.355046 C138.7,199.805046 131,155.875046 131,155.875046 L128.72,126.485046 C128.72,126.485046 100.44,133.025046 78.49,126.595046 Z" id="路径" stroke="#121314" fill="#121314" fill-rule="nonzero" stroke-linecap="round" stroke-linejoin="round"></path>
                    <path d="M112.78,150.935046 L108.16,159.515046 C108.16,159.515046 118.06,153.575046 124.33,152.585046" id="路径" stroke="#FFFFFF" stroke-linecap="round" stroke-linejoin="round"></path>
                    <path d="M97.5,156.485046 C97.5,156.485046 93.2,149.545046 85.61,147.565046" id="路径" stroke="#FFFFFF" stroke-linecap="round" stroke-linejoin="round"></path>
                    <path d="M77.64,129.015046 C77.64,129.015046 74.64,136.465046 76.15,138.705046 C77.66,140.945046 91.44,146.535046 105.23,146.535046 C119.02,146.535046 132.46,141.685046 132.46,138.335046 C132.46,134.985046 129.85,126.775046 129.85,126.775046 C129.85,126.775046 107.47,137.215046 77.64,129.015046 Z" id="路径" stroke="#263238" fill="#FFFFFF" fill-rule="nonzero" stroke-linecap="round" stroke-linejoin="round"></path>
                    <path d="M82.19,58.0150456 C82.19,58.0150456 72.19,58.0150456 69.91,59.8650456 C67.63,61.7150456 67.37,69.3650456 67.13,70.7550456 C66.89,72.1450456 61.62,97.0250456 61.62,97.0250456 L72.75,112.335046 L76.87,92.7750456 L77.27,130.775046 C77.27,130.775046 78.02,134.515046 80.57,135.905046 C83.12,137.295046 100.96,138.685046 109.3,138.685046 C117.64,138.685046 129.66,134.505046 130.59,131.955046 C131.52,129.405046 128.77,100.935046 128.77,100.935046 L132.72,109.725046 L142.2,93.4850456 C142.2,93.4850456 135.72,71.9650456 134.79,67.3350456 C133.86,62.7050456 131.32,61.3350456 126.22,59.2250456 C121.12,57.1150456 106.06,57.8350456 100.04,57.8350456 C94.02,57.8350456 82.19,58.0150456 82.19,58.0150456 Z" id="路径" stroke="#263238" fill="#FFFFFF" fill-rule="nonzero" stroke-linecap="round" stroke-linejoin="round"></path>
                    <path d="M84.72,132.745046 C88.5024237,132.294619 91.5379093,129.409687 92.18,125.655046 C93.67,118.945046 94.42,115.215046 94.42,115.215046 L97.03,114.845046 C96.9777507,118.582348 96.7273994,122.314252 96.28,126.025046 C95.54,132.365046 93.28,134.235046 92.18,134.235046" id="路径" stroke="#263238" stroke-linecap="round" stroke-linejoin="round"></path>
                    <path d="M126.12,129.385046 C129.12,121.925046 122.39,113.385046 122.39,113.385046 L119.78,113.015046 C119.78,113.015046 127.24,122.715046 123.51,130.165046" id="路径" stroke="#263238" stroke-linecap="round" stroke-linejoin="round"></path>
                    <line x1="76.87" y1="92.7750456" x2="75.24" y2="80.9550456" id="路径" stroke="#263238" stroke-linecap="round" stroke-linejoin="round"></line>
                    <line x1="128.77" y1="100.885046" x2="127.84" y2="79.3350456" id="路径" stroke="#263238" stroke-linecap="round" stroke-linejoin="round"></line>
                    <path d="M130.68,102.175046 C130.68,102.175046 127.79,96.8150456 137.28,92.2750456" id="路径" stroke="#263238" stroke-linecap="round" stroke-linejoin="round"></path>
                    <path d="M132.33,91.0350456 C132.33,91.0350456 137.33,88.9350456 140.58,88.9350456" id="路径" stroke="#263238" stroke-linecap="round" stroke-linejoin="round"></path>
                    <path d="M65.48,92.2750456 C65.48,92.2750456 73.32,94.7550456 74.97,100.945046" id="路径" stroke="#263238" stroke-linecap="round" stroke-linejoin="round"></path>
                    <path d="M74.56,95.1650456 C74.56,95.1650456 71.67,90.2150456 67.13,89.3850456" id="路径" stroke="#263238" stroke-linecap="round" stroke-linejoin="round"></path>
                    <path d="M96.63,47.6050456 C96.63,47.6050456 91.37,47.6050456 89.82,48.7750456 C88.27,49.9450456 87.48,53.0550456 86.7,53.6350456 C85.92,54.2150456 82.42,54.0250456 81.64,56.1650456 C80.86,58.3050456 80.86,57.7250456 86.9,63.3750456 C92.94,69.0250456 107.9,75.4450456 109.48,75.4450456 C111.06,75.4450456 121.16,63.7650456 124.08,62.4450456 C127,61.1250456 127.39,61.0850456 127.58,60.3050456 C127.77,59.5250456 127.39,55.6350456 124.85,54.0750456 C123.041448,53.0696193 121.06067,52.4116212 119.01,52.1350456 C119.01,52.1350456 118.63,49.7950456 115.51,48.0450456 C112.39,46.2950456 108.11,45.9050456 105,45.9050456 C101.89,45.9050456 96.63,47.6050456 96.63,47.6050456 Z" id="路径" stroke="#263238" fill="#FFFFFF" fill-rule="nonzero" stroke-linecap="round" stroke-linejoin="round"></path>
                    <path d="M119.01,52.0850456 C118.747953,54.9676552 118.091841,57.8007136 117.06,60.5050456" id="路径" stroke="#263238" stroke-linecap="round" stroke-linejoin="round"></path>
                    <path d="M87.77,56.3750456 C87.77,56.3750456 88.59,58.8550456 93.13,61.3250456" id="路径" stroke="#263238" stroke-linecap="round" stroke-linejoin="round"></path>
                    <line x1="105.83" y1="72.6150456" x2="106.29" y2="98.1050456" id="路径" stroke="#263238" stroke-linecap="round" stroke-linejoin="round"></line>
                    <line x1="111.39" y1="72.8450456" x2="113.71" y2="96.4750456" id="路径" stroke="#263238" stroke-linecap="round" stroke-linejoin="round"></line>
                    <rect id="矩形" stroke="#121314" fill="#121314" fill-rule="nonzero" stroke-linecap="round" stroke-linejoin="round" transform="translate(53.950135, 68.581621) rotate(-18.980000) translate(-53.950135, -68.581621) " x="47.5251352" y="56.5416205" width="12.85" height="24.08" rx="1.53"></rect>
                    <path d="M54.02,89.1350456 C53.21,88.3250456 45.77,70.6050456 45.1,68.9850456 C44.43,67.3650456 52.67,61.6750456 52.67,61.6750456 C52.67,61.6750456 54.84,60.3250456 54.84,61.5450456 C54.84,62.7650456 50.64,66.4150456 50.1,67.3650456 C49.56,68.3150456 51.32,71.2850456 51.32,71.2850456 C51.32,71.2850456 56.59,68.4450456 57,68.4450456 C57.41,68.4450456 63.22,73.4450456 63.76,73.9850456 C64.3,74.5250456 65.76,76.1550456 65.39,76.9850456 C65.02,77.8150456 64.03,77.3950456 63.39,77.2550456 C62.75,77.1150456 56.76,79.2550456 56.76,79.2550456 C56.76,79.2550456 59.06,82.5050456 58.76,84.3950456 C58.5831818,85.5878909 58.3123381,86.7648909 57.95,87.9150456 C57.95,87.9150456 70.79,103.685046 72.41,104.635046 C74.03,105.585046 74.95,109.045046 73.87,112.695046 C72.79,116.345046 70.25,116.125046 66.87,115.995046 C63.49,115.865046 54.02,89.1350456 54.02,89.1350456 Z" id="路径" stroke="#263238" fill="#FFFFFF" fill-rule="nonzero" stroke-linecap="round" stroke-linejoin="round"></path>
                    <path d="M59.16,71.0150456 C58.1974458,70.9853793 57.2369139,71.1206655 56.32,71.4150456 C55.78,71.8250456 51.73,74.5250456 51.73,74.5250456" id="路径" stroke="#263238" stroke-linecap="round" stroke-linejoin="round"></path>
                    <path d="M53.21,76.8250456 C54.6828377,75.7352172 56.2188538,74.7334675 57.81,73.8250456 C59.5153562,73.6200712 61.2325541,73.5298682 62.95,73.5550456" id="路径" stroke="#263238" stroke-linecap="round" stroke-linejoin="round"></path>
                    <path d="M64.17,74.6650456 C64.17,74.6650456 58.17,75.8850456 57.41,76.1550456 C56.3229955,76.8010156 55.3160303,77.5730223 54.41,78.4550456" id="路径" stroke="#263238" stroke-linecap="round" stroke-linejoin="round"></path>
                    <line x1="51.32" y1="71.2850456" x2="49.56" y2="72.3650456" id="路径" stroke="#263238" stroke-linecap="round" stroke-linejoin="round"></line>
                    <path d="M141.48,94.5650456 L163.76,76.8550456 C163.76,76.8550456 162.76,70.4850456 162.96,69.4950456 C163.16,68.5050456 164.96,62.7350456 169.33,60.5450456 C173.7,58.3550456 175.1,57.9550456 175.1,59.5450456 C175.1,61.1350456 173.5,61.5450456 173.1,62.1350456 C172.7,62.7250456 170.51,64.9150456 170.51,64.9150456 C170.51,64.9150456 174.69,63.1250456 176.08,63.1250456 C177.47,63.1250456 179.86,62.5350456 179.86,63.9250456 C179.86,65.3150456 178.27,65.3150456 177.27,65.3150456 C176.27,65.3150456 173.49,68.1050456 173.49,68.1050456 C175.798096,67.5200333 178.134445,67.0527634 180.49,66.7050456 C181.68,66.7050456 182.68,68.1050456 181.68,68.7050456 C180.798387,69.1523713 179.86455,69.488284 178.9,69.7050456 C178.011269,70.1194143 177.146568,70.5834817 176.31,71.0950456 C176.31,71.0950456 182.31,70.4950456 181.88,72.0950456 C181.45,73.6950456 178.7,73.2850456 178.1,73.2850456 C176.796965,73.5944663 175.618422,74.2918289 174.72,75.2850456 C174.32,76.0750456 173.52,79.4650456 171.93,80.2850456 C170.34,81.1050456 167.36,82.2850456 167.36,82.2850456 C167.36,82.2850456 157.21,94.6250456 153.03,99.3950456 C148.85,104.165046 141.33,109.675046 137.1,110.675046 C132.87,111.675046 132.1,110.475046 131.93,108.675046 C131.76,106.875046 131.91,100.525046 141.48,94.5650456 Z" id="路径" stroke="#263238" fill="#FFFFFF" fill-rule="nonzero" stroke-linecap="round" stroke-linejoin="round"></path>
                    <path d="M163.96,66.9350456 C163.96,66.9350456 168.73,64.7550456 169.72,64.7550456 C170.71,64.7550456 172.31,65.5450456 171.12,66.9350456 C169.785469,68.218471 168.317062,69.3549777 166.74,70.3250456 C166.74,70.3250456 172.51,72.7050456 169.74,77.0850456" id="路径" stroke="#263238" stroke-linecap="round" stroke-linejoin="round"></path>
                    <path d="M107.75,13.4250456 C107.75,13.4250456 101.51,14.5150456 98.63,18.0350456 C95.75,21.5550456 86.27,42.8450456 86.3297165,44.7550456 C86.39,46.6650456 95.96,45.6950456 95.96,45.6950456 C95.96,45.6950456 96.96,56.3550456 100.33,64.1550456 C101.26,66.2750456 104.57,70.4750456 108.12,68.9050456 C111.67,67.3350456 113.21,43.0250456 113.21,43.0250456 C113.21,43.0250456 116.59,47.8150456 119.15,46.5350456 C122.07,45.0650456 121.54,41.5350456 119.45,41.2750456 C117.36,41.0150456 126.15,33.2750456 123.98,27.3350456 C121.81,21.3950456 110.45,11.7850456 107.75,13.4250456 Z" id="路径" stroke="#263238" fill="#FFFFFF" fill-rule="nonzero" stroke-linecap="round" stroke-linejoin="round"></path>
                    <path d="M106.1,6.4950456 C106.1,6.4950456 94.33,5.3550456 93.18,10.9350456 C92.03,16.5150456 97.84,19.6350456 104.64,19.2350456 C111.44,18.8350456 117.48,19.8550456 118.22,20.9850456 C118.96,22.1150456 109.74,23.3350456 111.69,24.9850456 C112.82589,25.9730336 114.257144,26.556788 115.76,26.6450456 C115.76,26.6450456 112.76,27.1950456 112.76,29.3150456 C112.76,31.4350456 113.69,40.8650456 115.16,41.0050456 C116.63,41.1450456 119.43,41.2350456 119.43,41.2350456 C122.206432,40.1531137 124.784615,38.6190441 127.06,36.6950456 C130.53,33.6450456 132.06,26.6050456 128.49,22.0250456 C124.92,17.4450456 122.17,13.0950456 119.35,9.4450456 C116.53,5.7950456 113.95,1.9350456 107.75,0.445045596 C101.55,-1.0449544 97.93,1.2650456 106.1,6.4950456 Z" id="路径" stroke="#121314" fill="#121314" fill-rule="nonzero" stroke-linecap="round" stroke-linejoin="round"></path>
                    <path d="M128.45,30.5150456 C128.547541,31.7630219 128.470125,33.0185071 128.22,34.2450456" id="路径" stroke="#FFFFFF" stroke-linecap="round" stroke-linejoin="round"></path>
                    <path d="M108.38,13.4050456 C108.38,13.4050456 95.38,13.4050456 100.02,16.3250456 C104.66,19.2450456 112.53,15.3850456 121.53,20.0050456 C124.610242,21.469938 126.927648,24.168735 127.91,27.4350456" id="路径" stroke="#FFFFFF" stroke-linecap="round" stroke-linejoin="round"></path>
                    <path d="M115.24,23.9350456 C115.24,23.9350456 123.6,29.0850456 124.16,35.4450456" id="路径" stroke="#FFFFFF" stroke-linecap="round" stroke-linejoin="round"></path>
                    <path d="M95.93,45.6950456 C95.93,45.6950456 106.05,46.0450456 109,44.0050456" id="路径" stroke="#263238" stroke-linecap="round" stroke-linejoin="round"></path>
                    <path d="M93.61,37.0050456 C93.61,37.0050456 100.74,39.8150456 103.26,35.6250456" id="路径" stroke="#263238" stroke-linecap="round" stroke-linejoin="round"></path>
                    <line x1="102.08" y1="34.6650456" x2="105.1" y2="36.2250456" id="路径" stroke="#263238" stroke-linecap="round" stroke-linejoin="round"></line>
                    <path d="M96.85,27.5950456 C96.85,27.5950456 90.27,27.7950456 90.17,28.8450456 C90.07,29.8950456 93.97,33.2350456 93.97,33.2350456" id="路径" stroke="#263238" fill="#FFFFFF" fill-rule="nonzero" stroke-linecap="round" stroke-linejoin="round"></path>
                    <path d="M97.87,25.6650456 C97.48,26.5350456 96.81,27.0950456 96.37,26.8950456 C95.93,26.6950456 95.89,25.8350456 96.29,24.9550456 C96.69,24.0750456 97.35,23.5250456 97.79,23.7250456 C98.23,23.9250456 98.26,24.7850456 97.87,25.6650456 Z" id="路径" fill="#263238" fill-rule="nonzero"></path>
                    <path d="M103.11,28.9950456 C102.72,29.8750456 102.04,30.4250456 101.61,30.2250456 C101.18,30.0250456 101.13,29.1650456 101.52,28.2850456 C101.91,27.4050456 102.58,26.8550456 103.02,27.0550456 C103.46,27.2550456 103.5,28.1150456 103.11,28.9950456 Z" id="路径" fill="#263238" fill-rule="nonzero"></path>
                    <path d="M103.99,23.0750456 C103.99,23.0750456 107.14,23.6650456 106.43,27.9650456 L103.99,23.0750456 Z" id="路径" stroke="#263238" fill="#263238" fill-rule="nonzero" stroke-linecap="round" stroke-linejoin="round"></path>
                    <path d="M101.33,20.7750456 C101.33,20.7750456 99.82,18.2950456 97.2,21.2450456 L101.33,20.7750456 Z" id="路径" stroke="#263238" fill="#263238" fill-rule="nonzero" stroke-linecap="round" stroke-linejoin="round"></path>
                    <g id="编组-3" transform="translate(0.000000, 19.975046)" fill-rule="nonzero">
                        <path d="M48.38,33.6 L48.22,26.48 C50.1799706,26.4745406 51.7690273,24.8899474 51.78,22.93 L51.78,3.56 C51.7745067,1.5961462 50.1838538,0.00549332954 48.22,0 L3.55,0 C1.59005255,0.0109726663 0.00545942019,1.60002944 0,3.56 L0,22.96 C0.00549324689,24.918331 1.59166903,26.5045068 3.55,26.51 L42.18,26.51 L48.38,33.6 Z" id="路径" stroke="#121314" fill="#FFFFFF"></path>
                        <path d="M14.8500231,12.45 C14.8540488,11.5673736 14.3254836,10.7694025 13.5112023,10.4288269 C12.696921,10.0882512 11.7576287,10.2722863 11.1320779,10.8949676 C10.5065271,11.5176489 10.3181754,12.4560852 10.6550036,13.2719237 C10.9918319,14.0877623 11.7873643,14.62 12.67,14.62 C13.8700863,14.62 14.844495,13.6500737 14.8500231,12.45 L14.8500231,12.45 Z" id="路径" fill="#263238"></path>
                        <path d="M27.690023,12.45 C27.6940437,11.5664654 27.1643916,10.7678645 26.3488794,10.4278798 C25.5333671,10.0878951 24.5932899,10.2737702 23.96853,10.89853 C23.3437702,11.5232899 23.1578951,12.4633671 23.4978798,13.2788794 C23.8378645,14.0943916 24.6364654,14.6240437 25.52,14.620023 C26.7184579,14.620023 27.690023,13.6484579 27.690023,12.45 L27.690023,12.45 Z" id="路径" fill="#263238"></path>
                        <path d="M40.5400231,12.45 C40.5440488,11.5673736 40.0154836,10.7694025 39.2012023,10.4288269 C38.386921,10.0882512 37.4476287,10.2722863 36.8220779,10.8949676 C36.1965271,11.5176489 36.0081754,12.4560852 36.3450036,13.2719237 C36.6818319,14.0877623 37.4773643,14.62 38.36,14.62 C39.5600863,14.62 40.534495,13.6500737 40.5400231,12.45 L40.5400231,12.45 Z" id="路径" fill="#263238"></path>
                    </g>
                </g>
                <g id="项目文档" transform="translate(219.000000, 37.000000)" fill-rule="nonzero">
                    <path d="M13.7684605,2.29017509 L9.47641665,2.29017509 L9.14685243,1.1147541 C8.96183392,0.458793353 8.3663056,0 7.69561352,0 L1.5090572,0 C0.676473915,0 0,0.69008587 0,1.53752649 L0,15.7866622 C0,16.4558938 0.553128244,17 1.23345671,17 L13.7665333,17 C14.4468617,17 15,16.4558938 15,15.7866622 L15,3.50161704 C15.0019173,2.83428125 14.448789,2.29017509 13.7684605,2.29017509 Z M1.34909328,1.53752649 C1.34909328,1.41240103 1.43389343,1.32708821 1.5090572,1.32708821 L7.69561352,1.32708821 C7.76114091,1.32708821 7.82281374,1.38585926 7.84594105,1.46738039 L8.07721419,2.29017509 L1.34909328,2.29017509 L1.34909328,1.53752649 Z M13.652824,15.6767035 L1.34909328,15.6767035 L1.34909328,3.6172633 L13.652824,3.6172633 L13.652824,15.6767035 L13.652824,15.6767035 Z" id="形状" fill="#121314"></path>
                    <path d="M3.727352,6.65060778 C3.727352,7.01707307 4.02935682,7.31415189 4.40189864,7.31415189 C4.77444046,7.31415189 5.07644528,7.01707307 5.07644528,6.65060778 C5.07644528,6.28414249 4.77444046,5.98706368 4.40189864,5.98706368 C4.02935682,5.98706368 3.727352,6.28414249 3.727352,6.65060778 L3.727352,6.65060778 Z" id="路径" fill="#121314"></path>
                    <polygon id="路径" fill="#121314" points="6.64139348 5.98706368 11.6099113 5.98706368 11.6099113 7.31415189 6.64139348 7.31415189"></polygon>
                    <path d="M3.727352,9.82045277 C3.727352,10.1869181 4.02935682,10.4839969 4.40189864,10.4839969 C4.77444046,10.4839969 5.07644528,10.1869181 5.07644528,9.82045277 C5.07644528,9.45398748 4.77444046,9.15690867 4.40189864,9.15690867 C4.02935682,9.15690867 3.727352,9.45398748 3.727352,9.82045277 Z" id="路径" fill="#0F5BF3"></path>
                    <polygon id="路径" fill="#0F5BF3" points="6.64139348 9.15690867 11.6099113 9.15690867 11.6099113 10.4839969 6.64139348 10.4839969"></polygon>
                    <path d="M3.727352,12.9902978 C3.727352,13.356763 4.02935682,13.6538419 4.40189864,13.6538419 C4.77444046,13.6538419 5.07644528,13.356763 5.07644528,12.9902978 C5.07644528,12.6238325 4.77444046,12.3267537 4.40189864,12.3267537 C4.02935682,12.3267537 3.727352,12.6238325 3.727352,12.9902978 Z" id="路径" fill="#0F5BF3"></path>
                    <polygon id="路径" fill="#0F5BF3" points="6.64139348 12.3267537 11.6099113 12.3267537 11.6099113 13.6538419 6.64139348 13.6538419"></polygon>
                </g>
                <g id="文档提交" transform="translate(242.000000, 240.000000)" fill-rule="nonzero">
                    <polygon id="路径" fill="#121314" points="15 14.7333333 12.3040153 14.7333333 12.3040153 13.6 13.8527725 13.6 13.8527725 1.13333334 3.24091778 1.13333334 3.24091778 9.46333334 2.09369024 9.46333334 2.09369024 0 15 0"></polygon>
                    <path d="M10.0669216,16.9433333 L9.03441683,16.49 L10.6692161,12.75 L8.69024857,12.75 L8.69024857,11.6166667 L12.4474187,11.6166667 L10.0669216,16.9433333 Z M4.67495219,3.11666666 L12.418738,3.11666666 L12.418738,4.25 L4.67495219,4.25 L4.67495219,3.11666666 Z M4.67495219,5.66666666 L8.11663479,5.66666666 L8.11663479,6.8 L4.67495219,6.8 L4.67495219,5.66666666 Z" id="形状" fill="#121314"></path>
                    <polygon id="路径" fill="#0F5BF3" points="10.0669216 10.1716667 8.51816444 8.27333334 9.43594646 7.59333334 10.1816444 8.52833334 12.332696 6.65833334 13.0783939 7.50833334"></polygon>
                    <path d="M10.210325,17 L0.946462716,17 L0,10.2 L9.26386233,10.2 L10.210325,17 Z M1.9502868,15.8666667 L8.89101338,15.8666667 L8.26003825,11.3333333 L1.31931165,11.3333333 L1.9502868,15.8666667 L1.9502868,15.8666667 Z" id="形状" fill="#121314"></path>
                </g>
                <text id="Dsign" font-family="HelveticaNeue-MediumItalic, Helvetica Neue" font-size="15" font-style="italic" font-weight="400" fill="#0F5BF3">
                    <tspan x="268" y="139">Dsign</tspan>
                </text>
            </g>
        </g>
    </g>
</svg>