<?xml version="1.0" encoding="UTF-8"?>
<svg width="22px" height="18px" viewBox="0 0 22 18" version="1.1" xmlns="http://www.w3.org/2000/svg" xmlns:xlink="http://www.w3.org/1999/xlink">
    <title>矩形</title>
    <g id="首页" stroke="none" stroke-width="1" fill="none" fill-rule="evenodd" opacity="0.5">
        <g id="邮箱1" transform="translate(-860.000000, -94.000000)">
            <g id="编组-2备份" transform="translate(844.000000, 72.000000)">
                <g id="填选购人" transform="translate(16.000000, 22.000000)">
                    <rect id="矩形" fill="#C8D2E7" x="2" y="0" width="18" height="18"></rect>
                    <path d="M14,5.91428571 C14,4.28571429 12.6285714,3 11,3 C9.28571429,3 8,4.28571429 8,5.91428571 L8,6.51428571 C8,8.22857143 9.28571429,10.7142857 11,10.7142857 C12.6285714,10.7142857 14,8.22857143 14,6.6 L14,5.91428571 Z" id="路径" fill="#FFFFFF" fill-rule="nonzero"></path>
                    <path d="M16.0571429,12.1714286 C15.2,11.4 13.4857143,10.6285714 13.1428571,10.4571429 L13.1428571,10.7142857 C13.1428571,12.3428571 8.85714286,12.3428571 8.85714286,10.7142857 L8.85714286,10.4571429 C8.42857143,10.6285714 6.8,11.4 5.94285714,12.1714286 C5,12.9428571 5,15 5,15 L17,15 C17,15 17,12.9428571 16.0571429,12.1714286 Z" id="路径" fill="#0F5BF3" fill-rule="nonzero"></path>
                    <line x1="0" y1="7" x2="22" y2="7" id="路径-11" stroke="#0F5BF3" stroke-width="2"></line>
                </g>
            </g>
        </g>
    </g>
</svg>