<?xml version="1.0" encoding="UTF-8"?>
<svg width="18px" height="18px" viewBox="0 0 18 18" version="1.1" xmlns="http://www.w3.org/2000/svg" xmlns:xlink="http://www.w3.org/1999/xlink">
    <title>矩形</title>
    <g id="SignTask" stroke="none" stroke-width="1" fill="none" fill-rule="evenodd">
        <g id="图标" transform="translate(-38.000000, -60.000000)">
            <g id="首页" transform="translate(38.000000, 60.000000)">
                <rect id="矩形" x="1" y="1" width="16" height="16"></rect>
                <path d="M8,10 L10,10 C10.5522847,10 11,10.4477153 11,11 L11,15 L11,15 L7,15 L7,11 C7,10.4477153 7.44771525,10 8,10 Z" id="矩形" fill="#ACB3BE"></path>
                <path d="M8.59918117,1.83384267 L1.97849151,4.73039439 C1.61450418,4.88963884 1.37931034,5.24925389 1.37931034,5.64655172 L1.37931034,14.75 C1.37931034,15.3022847 1.82702559,15.75 2.37931034,15.75 L15.6206897,15.75 C16.1729744,15.75 16.6206897,15.3022847 16.6206897,14.75 L16.6206897,5.64655172 C16.6206897,5.24925389 16.3854958,4.88963884 16.0215085,4.73039439 L9.40081883,1.83384267 C9.14529833,1.72205244 8.85470167,1.72205244 8.59918117,1.83384267 Z M9.001,3.841 L14.621,6.3 L14.621,13.75 L3.38,13.75 L3.38,6.3 L9.001,3.841 Z" id="矩形" fill="#606C80" fill-rule="nonzero"></path>
            </g>
        </g>
    </g>
</svg>