<?xml version="1.0" encoding="UTF-8"?>
<svg width="16px" height="16px" viewBox="0 0 16 16" version="1.1" xmlns="http://www.w3.org/2000/svg" xmlns:xlink="http://www.w3.org/1999/xlink">
    <title>解绑</title>
    <g id="首页" stroke="none" stroke-width="1" fill="none" fill-rule="evenodd">
        <g id="2" transform="translate(-189.000000, -649.000000)">
            <g id="编组备份-2" transform="translate(16.000000, 633.000000)">
                <g id="解绑" transform="translate(173.000000, 16.000000)">
                    <rect id="矩形" x="0" y="0" width="16" height="16"></rect>
                    <path d="M1,8 C1,9.88768945 2.53029297,11.4179688 4.41796875,11.4179688 L6.90053516,11.4179688 L6.90053516,10.3185039 L4.41796875,10.3185039 C3.13748828,10.3185039 2.09946484,9.28048047 2.09946484,8 C2.09946484,6.7195332 3.13748828,5.68149609 4.41796875,5.68149609 L6.90053516,5.68149609 L6.90053516,4.58203125 L4.41796875,4.58203125 C2.53029297,4.58203125 1,6.11231055 1,8 Z M11.5820312,4.58203125 L9.09946484,4.58203125 L9.09946484,5.68149609 L11.5820312,5.68149609 C12.862498,5.68149609 13.9005352,6.7195332 13.9005352,8 C13.9005352,9.28048047 12.862498,10.3185039 11.5820312,10.3185039 L9.09946484,10.3185039 L9.09946484,11.4179688 L11.5820312,11.4179688 C13.4697207,11.4179688 15,9.88768945 15,8 C15,6.11231055 13.4697207,4.58203125 11.5820312,4.58203125 Z M7.45026758,1.12392187 L8.54973242,1.12392187 L8.54973242,3.31142187 L7.45026758,3.31142187 L7.45026758,1.12392187 Z M5.20410156,1 L6.27469141,2.89444336 L5.31749609,3.43538477 L4.24689258,1.54094141 L5.20410156,1 Z M10.7959121,1.00002734 L11.7531074,1.54096875 L10.6825039,3.43539844 L9.72530859,2.8944707 L10.7959121,1.00002734 Z M7.45026758,12.6885645 L8.54973242,12.6885645 L8.54973242,14.8760645 L7.45026758,14.8760645 L7.45026758,12.6885645 Z M5.20425195,15 L4.24707031,14.4590313 L5.3176875,12.5645879 L6.27488281,13.1055293 L5.20425195,15 Z M10.7958984,14.9999316 L9.72528125,13.1054746 L10.6824766,12.5645469 L11.7530801,14.4589902 L10.7958984,14.9999316 Z" id="形状" fill="#89898A" fill-rule="nonzero"></path>
                </g>
            </g>
        </g>
    </g>
</svg>